<svg xmlns="http://www.w3.org/2000/svg" xmlns:xlink="http://www.w3.org/1999/xlink" width="1920" zoomAndPan="magnify" viewBox="0 0 1440 809.999993" height="1080" preserveAspectRatio="xMidYMid meet" version="1.0"><defs><g/><clipPath id="11a7140694"><path d="M 627 389.734375 L 812.957031 389.734375 L 812.957031 420 L 627 420 Z M 627 389.734375 " clip-rule="nonzero"/></clipPath><clipPath id="f5727b1e26"><path d="M 642.132812 389.734375 L 797.808594 389.734375 C 801.820312 389.734375 805.667969 391.332031 808.507812 394.167969 C 811.34375 397.007812 812.9375 400.855469 812.9375 404.867188 C 812.9375 408.882812 811.34375 412.730469 808.507812 415.566406 C 805.667969 418.40625 801.820312 420 797.808594 420 L 642.132812 420 C 638.117188 420 634.269531 418.40625 631.433594 415.566406 C 628.59375 412.730469 627 408.882812 627 404.867188 C 627 400.855469 628.59375 397.007812 631.433594 394.167969 C 634.269531 391.332031 638.117188 389.734375 642.132812 389.734375 Z M 642.132812 389.734375 " clip-rule="nonzero"/></clipPath></defs><g clip-path="url(#11a7140694)"><g clip-path="url(#f5727b1e26)"><path fill="#8c52ff" d="M 627 389.734375 L 812.957031 389.734375 L 812.957031 420 L 627 420 Z M 627 389.734375 " fill-opacity="1" fill-rule="nonzero"/></g></g><g fill="#ffffff" fill-opacity="1"><g transform="translate(630.656224, 409.236182)"><g><path d="M 4.390625 0 L 2.5625 0 L 2.5625 -7.0625 L 0.234375 -7.0625 L 0.234375 -8.5625 L 6.703125 -8.5625 L 6.703125 -7.0625 L 4.390625 -7.0625 Z M 4.390625 0 "/></g></g><g transform="translate(637.605443, 409.236182)"><g><path d="M 3.65625 -5.40625 C 3.269531 -5.40625 2.96875 -5.285156 2.75 -5.046875 C 2.539062 -4.804688 2.421875 -4.460938 2.390625 -4.015625 L 4.90625 -4.015625 C 4.894531 -4.460938 4.773438 -4.804688 4.546875 -5.046875 C 4.328125 -5.285156 4.03125 -5.40625 3.65625 -5.40625 Z M 3.90625 0.125 C 2.851562 0.125 2.03125 -0.164062 1.4375 -0.75 C 0.84375 -1.332031 0.546875 -2.160156 0.546875 -3.234375 C 0.546875 -4.328125 0.816406 -5.171875 1.359375 -5.765625 C 1.910156 -6.367188 2.671875 -6.671875 3.640625 -6.671875 C 4.566406 -6.671875 5.285156 -6.40625 5.796875 -5.875 C 6.316406 -5.351562 6.578125 -4.628906 6.578125 -3.703125 L 6.578125 -2.828125 L 2.34375 -2.828125 C 2.363281 -2.316406 2.515625 -1.921875 2.796875 -1.640625 C 3.078125 -1.359375 3.472656 -1.21875 3.984375 -1.21875 C 4.378906 -1.21875 4.75 -1.253906 5.09375 -1.328125 C 5.445312 -1.410156 5.816406 -1.546875 6.203125 -1.734375 L 6.203125 -0.34375 C 5.890625 -0.1875 5.554688 -0.0703125 5.203125 0 C 4.847656 0.0820312 4.414062 0.125 3.90625 0.125 Z M 2.625 -7.265625 L 2.625 -7.4375 C 3.289062 -8.21875 3.75 -8.800781 4 -9.1875 L 6 -9.1875 L 6 -9.078125 C 5.789062 -8.867188 5.441406 -8.5625 4.953125 -8.15625 C 4.460938 -7.757812 4.082031 -7.460938 3.8125 -7.265625 Z M 2.625 -7.265625 "/></g></g><g transform="translate(644.695286, 409.236182)"><g><path d="M 2.71875 0 L 0.9375 0 L 0.9375 -9.125 L 2.71875 -9.125 Z M 2.71875 0 "/></g></g><g transform="translate(648.357395, 409.236182)"><g><path d="M 3.65625 -5.40625 C 3.269531 -5.40625 2.96875 -5.285156 2.75 -5.046875 C 2.539062 -4.804688 2.421875 -4.460938 2.390625 -4.015625 L 4.90625 -4.015625 C 4.894531 -4.460938 4.773438 -4.804688 4.546875 -5.046875 C 4.328125 -5.285156 4.03125 -5.40625 3.65625 -5.40625 Z M 3.90625 0.125 C 2.851562 0.125 2.03125 -0.164062 1.4375 -0.75 C 0.84375 -1.332031 0.546875 -2.160156 0.546875 -3.234375 C 0.546875 -4.328125 0.816406 -5.171875 1.359375 -5.765625 C 1.910156 -6.367188 2.671875 -6.671875 3.640625 -6.671875 C 4.566406 -6.671875 5.285156 -6.40625 5.796875 -5.875 C 6.316406 -5.351562 6.578125 -4.628906 6.578125 -3.703125 L 6.578125 -2.828125 L 2.34375 -2.828125 C 2.363281 -2.316406 2.515625 -1.921875 2.796875 -1.640625 C 3.078125 -1.359375 3.472656 -1.21875 3.984375 -1.21875 C 4.378906 -1.21875 4.75 -1.253906 5.09375 -1.328125 C 5.445312 -1.410156 5.816406 -1.546875 6.203125 -1.734375 L 6.203125 -0.34375 C 5.890625 -0.1875 5.554688 -0.0703125 5.203125 0 C 4.847656 0.0820312 4.414062 0.125 3.90625 0.125 Z M 2.625 -7.265625 L 2.625 -7.4375 C 3.289062 -8.21875 3.75 -8.800781 4 -9.1875 L 6 -9.1875 L 6 -9.078125 C 5.789062 -8.867188 5.441406 -8.5625 4.953125 -8.15625 C 4.460938 -7.757812 4.082031 -7.460938 3.8125 -7.265625 Z M 2.625 -7.265625 "/></g></g><g transform="translate(655.447239, 409.236182)"><g><path d="M 2.5 0 L 0 -6.546875 L 1.875 -6.546875 L 3.140625 -2.8125 C 3.273438 -2.34375 3.363281 -1.898438 3.40625 -1.484375 L 3.4375 -1.484375 C 3.457031 -1.859375 3.546875 -2.300781 3.703125 -2.8125 L 4.953125 -6.546875 L 6.828125 -6.546875 L 4.328125 0 Z M 2.5 0 "/></g></g><g transform="translate(662.27341, 409.236182)"><g><path d="M 3.65625 -5.40625 C 3.269531 -5.40625 2.96875 -5.285156 2.75 -5.046875 C 2.539062 -4.804688 2.421875 -4.460938 2.390625 -4.015625 L 4.90625 -4.015625 C 4.894531 -4.460938 4.773438 -4.804688 4.546875 -5.046875 C 4.328125 -5.285156 4.03125 -5.40625 3.65625 -5.40625 Z M 3.90625 0.125 C 2.851562 0.125 2.03125 -0.164062 1.4375 -0.75 C 0.84375 -1.332031 0.546875 -2.160156 0.546875 -3.234375 C 0.546875 -4.328125 0.816406 -5.171875 1.359375 -5.765625 C 1.910156 -6.367188 2.671875 -6.671875 3.640625 -6.671875 C 4.566406 -6.671875 5.285156 -6.40625 5.796875 -5.875 C 6.316406 -5.351562 6.578125 -4.628906 6.578125 -3.703125 L 6.578125 -2.828125 L 2.34375 -2.828125 C 2.363281 -2.316406 2.515625 -1.921875 2.796875 -1.640625 C 3.078125 -1.359375 3.472656 -1.21875 3.984375 -1.21875 C 4.378906 -1.21875 4.75 -1.253906 5.09375 -1.328125 C 5.445312 -1.410156 5.816406 -1.546875 6.203125 -1.734375 L 6.203125 -0.34375 C 5.890625 -0.1875 5.554688 -0.0703125 5.203125 0 C 4.847656 0.0820312 4.414062 0.125 3.90625 0.125 Z M 3.90625 0.125 "/></g></g><g transform="translate(669.363254, 409.236182)"><g><path d="M 4.59375 -6.671875 C 4.832031 -6.671875 5.035156 -6.65625 5.203125 -6.625 L 5.0625 -4.953125 C 4.914062 -4.984375 4.738281 -5 4.53125 -5 C 3.96875 -5 3.523438 -4.851562 3.203125 -4.5625 C 2.878906 -4.269531 2.71875 -3.859375 2.71875 -3.328125 L 2.71875 0 L 0.9375 0 L 0.9375 -6.546875 L 2.296875 -6.546875 L 2.5625 -5.453125 L 2.640625 -5.453125 C 2.847656 -5.816406 3.125 -6.109375 3.46875 -6.328125 C 3.8125 -6.554688 4.1875 -6.671875 4.59375 -6.671875 Z M 4.59375 -6.671875 "/></g></g><g transform="translate(674.812472, 409.236182)"><g><path d="M 5.515625 -1.953125 C 5.515625 -1.273438 5.28125 -0.757812 4.8125 -0.40625 C 4.34375 -0.0507812 3.644531 0.125 2.71875 0.125 C 2.238281 0.125 1.828125 0.0859375 1.484375 0.015625 C 1.148438 -0.046875 0.835938 -0.140625 0.546875 -0.265625 L 0.546875 -1.734375 C 0.878906 -1.578125 1.253906 -1.445312 1.671875 -1.34375 C 2.085938 -1.238281 2.453125 -1.1875 2.765625 -1.1875 C 3.421875 -1.1875 3.75 -1.375 3.75 -1.75 C 3.75 -1.894531 3.703125 -2.007812 3.609375 -2.09375 C 3.523438 -2.1875 3.378906 -2.285156 3.171875 -2.390625 C 2.960938 -2.503906 2.679688 -2.632812 2.328125 -2.78125 C 1.828125 -2.988281 1.457031 -3.179688 1.21875 -3.359375 C 0.976562 -3.546875 0.804688 -3.753906 0.703125 -3.984375 C 0.597656 -4.222656 0.546875 -4.507812 0.546875 -4.84375 C 0.546875 -5.425781 0.769531 -5.875 1.21875 -6.1875 C 1.664062 -6.507812 2.304688 -6.671875 3.140625 -6.671875 C 3.921875 -6.671875 4.6875 -6.5 5.4375 -6.15625 L 4.90625 -4.875 C 4.570312 -5.007812 4.257812 -5.117188 3.96875 -5.203125 C 3.6875 -5.296875 3.398438 -5.34375 3.109375 -5.34375 C 2.578125 -5.34375 2.3125 -5.203125 2.3125 -4.921875 C 2.3125 -4.765625 2.394531 -4.625 2.5625 -4.5 C 2.738281 -4.382812 3.113281 -4.210938 3.6875 -3.984375 C 4.195312 -3.773438 4.570312 -3.582031 4.8125 -3.40625 C 5.050781 -3.226562 5.226562 -3.019531 5.34375 -2.78125 C 5.457031 -2.550781 5.515625 -2.273438 5.515625 -1.953125 Z M 5.515625 -1.953125 "/></g></g><g transform="translate(680.777316, 409.236182)"><g><path d="M 3.65625 -5.40625 C 3.269531 -5.40625 2.96875 -5.285156 2.75 -5.046875 C 2.539062 -4.804688 2.421875 -4.460938 2.390625 -4.015625 L 4.90625 -4.015625 C 4.894531 -4.460938 4.773438 -4.804688 4.546875 -5.046875 C 4.328125 -5.285156 4.03125 -5.40625 3.65625 -5.40625 Z M 3.90625 0.125 C 2.851562 0.125 2.03125 -0.164062 1.4375 -0.75 C 0.84375 -1.332031 0.546875 -2.160156 0.546875 -3.234375 C 0.546875 -4.328125 0.816406 -5.171875 1.359375 -5.765625 C 1.910156 -6.367188 2.671875 -6.671875 3.640625 -6.671875 C 4.566406 -6.671875 5.285156 -6.40625 5.796875 -5.875 C 6.316406 -5.351562 6.578125 -4.628906 6.578125 -3.703125 L 6.578125 -2.828125 L 2.34375 -2.828125 C 2.363281 -2.316406 2.515625 -1.921875 2.796875 -1.640625 C 3.078125 -1.359375 3.472656 -1.21875 3.984375 -1.21875 C 4.378906 -1.21875 4.75 -1.253906 5.09375 -1.328125 C 5.445312 -1.410156 5.816406 -1.546875 6.203125 -1.734375 L 6.203125 -0.34375 C 5.890625 -0.1875 5.554688 -0.0703125 5.203125 0 C 4.847656 0.0820312 4.414062 0.125 3.90625 0.125 Z M 3.90625 0.125 "/></g></g><g transform="translate(687.867159, 409.236182)"><g><path d="M 4.59375 -6.671875 C 4.832031 -6.671875 5.035156 -6.65625 5.203125 -6.625 L 5.0625 -4.953125 C 4.914062 -4.984375 4.738281 -5 4.53125 -5 C 3.96875 -5 3.523438 -4.851562 3.203125 -4.5625 C 2.878906 -4.269531 2.71875 -3.859375 2.71875 -3.328125 L 2.71875 0 L 0.9375 0 L 0.9375 -6.546875 L 2.296875 -6.546875 L 2.5625 -5.453125 L 2.640625 -5.453125 C 2.847656 -5.816406 3.125 -6.109375 3.46875 -6.328125 C 3.8125 -6.554688 4.1875 -6.671875 4.59375 -6.671875 Z M 4.59375 -6.671875 "/></g></g><g transform="translate(693.316377, 409.236182)"><g/></g><g transform="translate(696.433565, 409.236182)"><g><path d="M 2.71875 0 L 0.9375 0 L 0.9375 -9.125 L 2.71875 -9.125 Z M 2.71875 0 "/></g></g><g transform="translate(700.095674, 409.236182)"><g><path d="M 3.65625 -5.40625 C 3.269531 -5.40625 2.96875 -5.285156 2.75 -5.046875 C 2.539062 -4.804688 2.421875 -4.460938 2.390625 -4.015625 L 4.90625 -4.015625 C 4.894531 -4.460938 4.773438 -4.804688 4.546875 -5.046875 C 4.328125 -5.285156 4.03125 -5.40625 3.65625 -5.40625 Z M 3.90625 0.125 C 2.851562 0.125 2.03125 -0.164062 1.4375 -0.75 C 0.84375 -1.332031 0.546875 -2.160156 0.546875 -3.234375 C 0.546875 -4.328125 0.816406 -5.171875 1.359375 -5.765625 C 1.910156 -6.367188 2.671875 -6.671875 3.640625 -6.671875 C 4.566406 -6.671875 5.285156 -6.40625 5.796875 -5.875 C 6.316406 -5.351562 6.578125 -4.628906 6.578125 -3.703125 L 6.578125 -2.828125 L 2.34375 -2.828125 C 2.363281 -2.316406 2.515625 -1.921875 2.796875 -1.640625 C 3.078125 -1.359375 3.472656 -1.21875 3.984375 -1.21875 C 4.378906 -1.21875 4.75 -1.253906 5.09375 -1.328125 C 5.445312 -1.410156 5.816406 -1.546875 6.203125 -1.734375 L 6.203125 -0.34375 C 5.890625 -0.1875 5.554688 -0.0703125 5.203125 0 C 4.847656 0.0820312 4.414062 0.125 3.90625 0.125 Z M 3.90625 0.125 "/></g></g><g transform="translate(707.185517, 409.236182)"><g/></g><g transform="translate(710.302705, 409.236182)"><g><path d="M 3.59375 0.125 C 1.5625 0.125 0.546875 -0.992188 0.546875 -3.234375 C 0.546875 -4.347656 0.820312 -5.195312 1.375 -5.78125 C 1.925781 -6.375 2.71875 -6.671875 3.75 -6.671875 C 4.507812 -6.671875 5.191406 -6.523438 5.796875 -6.234375 L 5.265625 -4.84375 C 4.984375 -4.957031 4.722656 -5.050781 4.484375 -5.125 C 4.242188 -5.195312 4 -5.234375 3.75 -5.234375 C 2.820312 -5.234375 2.359375 -4.570312 2.359375 -3.25 C 2.359375 -1.96875 2.820312 -1.328125 3.75 -1.328125 C 4.09375 -1.328125 4.410156 -1.375 4.703125 -1.46875 C 5.003906 -1.5625 5.300781 -1.707031 5.59375 -1.90625 L 5.59375 -0.375 C 5.300781 -0.1875 5.003906 -0.0546875 4.703125 0.015625 C 4.410156 0.0859375 4.039062 0.125 3.59375 0.125 Z M 3.59375 0.125 "/></g></g><g transform="translate(716.472626, 409.236182)"><g><path d="M 2.359375 -3.28125 C 2.359375 -2.632812 2.460938 -2.144531 2.671875 -1.8125 C 2.890625 -1.476562 3.238281 -1.3125 3.71875 -1.3125 C 4.195312 -1.3125 4.539062 -1.476562 4.75 -1.8125 C 4.957031 -2.144531 5.0625 -2.632812 5.0625 -3.28125 C 5.0625 -3.9375 4.957031 -4.425781 4.75 -4.75 C 4.539062 -5.070312 4.191406 -5.234375 3.703125 -5.234375 C 3.234375 -5.234375 2.890625 -5.070312 2.671875 -4.75 C 2.460938 -4.425781 2.359375 -3.9375 2.359375 -3.28125 Z M 6.890625 -3.28125 C 6.890625 -2.21875 6.609375 -1.382812 6.046875 -0.78125 C 5.484375 -0.175781 4.703125 0.125 3.703125 0.125 C 3.066406 0.125 2.507812 -0.0078125 2.03125 -0.28125 C 1.550781 -0.5625 1.179688 -0.957031 0.921875 -1.46875 C 0.671875 -1.988281 0.546875 -2.59375 0.546875 -3.28125 C 0.546875 -4.351562 0.820312 -5.1875 1.375 -5.78125 C 1.9375 -6.375 2.722656 -6.671875 3.734375 -6.671875 C 4.359375 -6.671875 4.910156 -6.535156 5.390625 -6.265625 C 5.878906 -5.992188 6.25 -5.597656 6.5 -5.078125 C 6.757812 -4.566406 6.890625 -3.96875 6.890625 -3.28125 Z M 6.890625 -3.28125 "/></g></g><g transform="translate(723.902314, 409.236182)"><g><path d="M 3.015625 0.125 C 2.242188 0.125 1.640625 -0.171875 1.203125 -0.765625 C 0.765625 -1.367188 0.546875 -2.203125 0.546875 -3.265625 C 0.546875 -4.335938 0.765625 -5.171875 1.203125 -5.765625 C 1.648438 -6.367188 2.269531 -6.671875 3.0625 -6.671875 C 3.882812 -6.671875 4.515625 -6.351562 4.953125 -5.71875 L 5 -5.71875 C 4.914062 -6.207031 4.875 -6.640625 4.875 -7.015625 L 4.875 -9.125 L 6.65625 -9.125 L 6.65625 0 L 5.296875 0 L 4.953125 -0.84375 L 4.875 -0.84375 C 4.46875 -0.195312 3.847656 0.125 3.015625 0.125 Z M 3.640625 -1.3125 C 4.097656 -1.3125 4.429688 -1.441406 4.640625 -1.703125 C 4.859375 -1.972656 4.976562 -2.425781 5 -3.0625 L 5 -3.25 C 5 -3.957031 4.890625 -4.460938 4.671875 -4.765625 C 4.453125 -5.066406 4.097656 -5.21875 3.609375 -5.21875 C 3.210938 -5.21875 2.898438 -5.046875 2.671875 -4.703125 C 2.453125 -4.367188 2.34375 -3.878906 2.34375 -3.234375 C 2.34375 -2.597656 2.453125 -2.117188 2.671875 -1.796875 C 2.898438 -1.472656 3.222656 -1.3125 3.640625 -1.3125 Z M 3.640625 -1.3125 "/></g></g><g transform="translate(731.496063, 409.236182)"><g><path d="M 3.65625 -5.40625 C 3.269531 -5.40625 2.96875 -5.285156 2.75 -5.046875 C 2.539062 -4.804688 2.421875 -4.460938 2.390625 -4.015625 L 4.90625 -4.015625 C 4.894531 -4.460938 4.773438 -4.804688 4.546875 -5.046875 C 4.328125 -5.285156 4.03125 -5.40625 3.65625 -5.40625 Z M 3.90625 0.125 C 2.851562 0.125 2.03125 -0.164062 1.4375 -0.75 C 0.84375 -1.332031 0.546875 -2.160156 0.546875 -3.234375 C 0.546875 -4.328125 0.816406 -5.171875 1.359375 -5.765625 C 1.910156 -6.367188 2.671875 -6.671875 3.640625 -6.671875 C 4.566406 -6.671875 5.285156 -6.40625 5.796875 -5.875 C 6.316406 -5.351562 6.578125 -4.628906 6.578125 -3.703125 L 6.578125 -2.828125 L 2.34375 -2.828125 C 2.363281 -2.316406 2.515625 -1.921875 2.796875 -1.640625 C 3.078125 -1.359375 3.472656 -1.21875 3.984375 -1.21875 C 4.378906 -1.21875 4.75 -1.253906 5.09375 -1.328125 C 5.445312 -1.410156 5.816406 -1.546875 6.203125 -1.734375 L 6.203125 -0.34375 C 5.890625 -0.1875 5.554688 -0.0703125 5.203125 0 C 4.847656 0.0820312 4.414062 0.125 3.90625 0.125 Z M 3.90625 0.125 "/></g></g><g transform="translate(738.585907, 409.236182)"><g/></g><g transform="translate(741.703094, 409.236182)"><g><path d="M 5.515625 -1.953125 C 5.515625 -1.273438 5.28125 -0.757812 4.8125 -0.40625 C 4.34375 -0.0507812 3.644531 0.125 2.71875 0.125 C 2.238281 0.125 1.828125 0.0859375 1.484375 0.015625 C 1.148438 -0.046875 0.835938 -0.140625 0.546875 -0.265625 L 0.546875 -1.734375 C 0.878906 -1.578125 1.253906 -1.445312 1.671875 -1.34375 C 2.085938 -1.238281 2.453125 -1.1875 2.765625 -1.1875 C 3.421875 -1.1875 3.75 -1.375 3.75 -1.75 C 3.75 -1.894531 3.703125 -2.007812 3.609375 -2.09375 C 3.523438 -2.1875 3.378906 -2.285156 3.171875 -2.390625 C 2.960938 -2.503906 2.679688 -2.632812 2.328125 -2.78125 C 1.828125 -2.988281 1.457031 -3.179688 1.21875 -3.359375 C 0.976562 -3.546875 0.804688 -3.753906 0.703125 -3.984375 C 0.597656 -4.222656 0.546875 -4.507812 0.546875 -4.84375 C 0.546875 -5.425781 0.769531 -5.875 1.21875 -6.1875 C 1.664062 -6.507812 2.304688 -6.671875 3.140625 -6.671875 C 3.921875 -6.671875 4.6875 -6.5 5.4375 -6.15625 L 4.90625 -4.875 C 4.570312 -5.007812 4.257812 -5.117188 3.96875 -5.203125 C 3.6875 -5.296875 3.398438 -5.34375 3.109375 -5.34375 C 2.578125 -5.34375 2.3125 -5.203125 2.3125 -4.921875 C 2.3125 -4.765625 2.394531 -4.625 2.5625 -4.5 C 2.738281 -4.382812 3.113281 -4.210938 3.6875 -3.984375 C 4.195312 -3.773438 4.570312 -3.582031 4.8125 -3.40625 C 5.050781 -3.226562 5.226562 -3.019531 5.34375 -2.78125 C 5.457031 -2.550781 5.515625 -2.273438 5.515625 -1.953125 Z M 5.515625 -1.953125 "/></g></g><g transform="translate(747.667937, 409.236182)"><g><path d="M 5.578125 0 L 5.34375 -0.84375 L 5.25 -0.84375 C 5.050781 -0.53125 4.773438 -0.289062 4.421875 -0.125 C 4.078125 0.0390625 3.679688 0.125 3.234375 0.125 C 2.460938 0.125 1.878906 -0.0820312 1.484375 -0.5 C 1.097656 -0.914062 0.90625 -1.507812 0.90625 -2.28125 L 0.90625 -6.546875 L 2.6875 -6.546875 L 2.6875 -2.71875 C 2.6875 -2.25 2.769531 -1.894531 2.9375 -1.65625 C 3.101562 -1.425781 3.375 -1.3125 3.75 -1.3125 C 4.25 -1.3125 4.609375 -1.476562 4.828125 -1.8125 C 5.046875 -2.144531 5.15625 -2.695312 5.15625 -3.46875 L 5.15625 -6.546875 L 6.953125 -6.546875 L 6.953125 0 Z M 5.578125 0 "/></g></g><g transform="translate(755.554656, 409.236182)"><g><path d="M 4.59375 -6.671875 C 4.832031 -6.671875 5.035156 -6.65625 5.203125 -6.625 L 5.0625 -4.953125 C 4.914062 -4.984375 4.738281 -5 4.53125 -5 C 3.96875 -5 3.523438 -4.851562 3.203125 -4.5625 C 2.878906 -4.269531 2.71875 -3.859375 2.71875 -3.328125 L 2.71875 0 L 0.9375 0 L 0.9375 -6.546875 L 2.296875 -6.546875 L 2.5625 -5.453125 L 2.640625 -5.453125 C 2.847656 -5.816406 3.125 -6.109375 3.46875 -6.328125 C 3.8125 -6.554688 4.1875 -6.671875 4.59375 -6.671875 Z M 4.59375 -6.671875 "/></g></g><g transform="translate(761.003874, 409.236182)"><g/></g><g transform="translate(764.121062, 409.236182)"><g><path d="M 2.71875 0 L 0.9375 0 L 0.9375 -9.125 L 2.71875 -9.125 Z M 2.71875 0 "/></g></g><g transform="translate(767.783171, 409.236182)"><g><path d="M 5.09375 0 L 4.75 -0.890625 L 4.703125 -0.890625 C 4.398438 -0.515625 4.085938 -0.25 3.765625 -0.09375 C 3.453125 0.0507812 3.039062 0.125 2.53125 0.125 C 1.90625 0.125 1.410156 -0.0546875 1.046875 -0.421875 C 0.679688 -0.785156 0.5 -1.296875 0.5 -1.953125 C 0.5 -2.648438 0.742188 -3.160156 1.234375 -3.484375 C 1.722656 -3.816406 2.457031 -4.003906 3.4375 -4.046875 L 4.578125 -4.078125 L 4.578125 -4.359375 C 4.578125 -5.023438 4.234375 -5.359375 3.546875 -5.359375 C 3.023438 -5.359375 2.410156 -5.203125 1.703125 -4.890625 L 1.109375 -6.09375 C 1.867188 -6.488281 2.707031 -6.6875 3.625 -6.6875 C 4.5 -6.6875 5.171875 -6.492188 5.640625 -6.109375 C 6.109375 -5.722656 6.34375 -5.140625 6.34375 -4.359375 L 6.34375 0 Z M 4.578125 -3.03125 L 3.875 -3.015625 C 3.351562 -2.992188 2.96875 -2.894531 2.71875 -2.71875 C 2.46875 -2.550781 2.34375 -2.296875 2.34375 -1.953125 C 2.34375 -1.441406 2.628906 -1.1875 3.203125 -1.1875 C 3.617188 -1.1875 3.953125 -1.304688 4.203125 -1.546875 C 4.453125 -1.785156 4.578125 -2.101562 4.578125 -2.5 Z M 4.578125 -3.03125 "/></g></g><g transform="translate(775.031217, 409.236182)"><g/></g><g transform="translate(778.148405, 409.236182)"><g><path d="M 3.59375 0.125 C 1.5625 0.125 0.546875 -0.992188 0.546875 -3.234375 C 0.546875 -4.347656 0.820312 -5.195312 1.375 -5.78125 C 1.925781 -6.375 2.71875 -6.671875 3.75 -6.671875 C 4.507812 -6.671875 5.191406 -6.523438 5.796875 -6.234375 L 5.265625 -4.84375 C 4.984375 -4.957031 4.722656 -5.050781 4.484375 -5.125 C 4.242188 -5.195312 4 -5.234375 3.75 -5.234375 C 2.820312 -5.234375 2.359375 -4.570312 2.359375 -3.25 C 2.359375 -1.96875 2.820312 -1.328125 3.75 -1.328125 C 4.09375 -1.328125 4.410156 -1.375 4.703125 -1.46875 C 5.003906 -1.5625 5.300781 -1.707031 5.59375 -1.90625 L 5.59375 -0.375 C 5.300781 -0.1875 5.003906 -0.0546875 4.703125 0.015625 C 4.410156 0.0859375 4.039062 0.125 3.59375 0.125 Z M 3.59375 0.125 "/></g></g><g transform="translate(784.318326, 409.236182)"><g><path d="M 5.09375 0 L 4.75 -0.890625 L 4.703125 -0.890625 C 4.398438 -0.515625 4.085938 -0.25 3.765625 -0.09375 C 3.453125 0.0507812 3.039062 0.125 2.53125 0.125 C 1.90625 0.125 1.410156 -0.0546875 1.046875 -0.421875 C 0.679688 -0.785156 0.5 -1.296875 0.5 -1.953125 C 0.5 -2.648438 0.742188 -3.160156 1.234375 -3.484375 C 1.722656 -3.816406 2.457031 -4.003906 3.4375 -4.046875 L 4.578125 -4.078125 L 4.578125 -4.359375 C 4.578125 -5.023438 4.234375 -5.359375 3.546875 -5.359375 C 3.023438 -5.359375 2.410156 -5.203125 1.703125 -4.890625 L 1.109375 -6.09375 C 1.867188 -6.488281 2.707031 -6.6875 3.625 -6.6875 C 4.5 -6.6875 5.171875 -6.492188 5.640625 -6.109375 C 6.109375 -5.722656 6.34375 -5.140625 6.34375 -4.359375 L 6.34375 0 Z M 4.578125 -3.03125 L 3.875 -3.015625 C 3.351562 -2.992188 2.96875 -2.894531 2.71875 -2.71875 C 2.46875 -2.550781 2.34375 -2.296875 2.34375 -1.953125 C 2.34375 -1.441406 2.628906 -1.1875 3.203125 -1.1875 C 3.617188 -1.1875 3.953125 -1.304688 4.203125 -1.546875 C 4.453125 -1.785156 4.578125 -2.101562 4.578125 -2.5 Z M 4.578125 -3.03125 "/></g></g><g transform="translate(791.566373, 409.236182)"><g><path d="M 4.59375 -6.671875 C 4.832031 -6.671875 5.035156 -6.65625 5.203125 -6.625 L 5.0625 -4.953125 C 4.914062 -4.984375 4.738281 -5 4.53125 -5 C 3.96875 -5 3.523438 -4.851562 3.203125 -4.5625 C 2.878906 -4.269531 2.71875 -3.859375 2.71875 -3.328125 L 2.71875 0 L 0.9375 0 L 0.9375 -6.546875 L 2.296875 -6.546875 L 2.5625 -5.453125 L 2.640625 -5.453125 C 2.847656 -5.816406 3.125 -6.109375 3.46875 -6.328125 C 3.8125 -6.554688 4.1875 -6.671875 4.59375 -6.671875 Z M 4.59375 -6.671875 "/></g></g><g transform="translate(797.015591, 409.236182)"><g><path d="M 3.703125 -1.3125 C 4.015625 -1.3125 4.390625 -1.378906 4.828125 -1.515625 L 4.828125 -0.1875 C 4.378906 0.0195312 3.832031 0.125 3.1875 0.125 C 2.46875 0.125 1.941406 -0.0546875 1.609375 -0.421875 C 1.285156 -0.785156 1.125 -1.328125 1.125 -2.046875 L 1.125 -5.203125 L 0.28125 -5.203125 L 0.28125 -5.96875 L 1.265625 -6.5625 L 1.78125 -7.953125 L 2.921875 -7.953125 L 2.921875 -6.546875 L 4.75 -6.546875 L 4.75 -5.203125 L 2.921875 -5.203125 L 2.921875 -2.046875 C 2.921875 -1.796875 2.988281 -1.609375 3.125 -1.484375 C 3.269531 -1.367188 3.460938 -1.3125 3.703125 -1.3125 Z M 3.703125 -1.3125 "/></g></g><g transform="translate(802.224575, 409.236182)"><g><path d="M 3.65625 -5.40625 C 3.269531 -5.40625 2.96875 -5.285156 2.75 -5.046875 C 2.539062 -4.804688 2.421875 -4.460938 2.390625 -4.015625 L 4.90625 -4.015625 C 4.894531 -4.460938 4.773438 -4.804688 4.546875 -5.046875 C 4.328125 -5.285156 4.03125 -5.40625 3.65625 -5.40625 Z M 3.90625 0.125 C 2.851562 0.125 2.03125 -0.164062 1.4375 -0.75 C 0.84375 -1.332031 0.546875 -2.160156 0.546875 -3.234375 C 0.546875 -4.328125 0.816406 -5.171875 1.359375 -5.765625 C 1.910156 -6.367188 2.671875 -6.671875 3.640625 -6.671875 C 4.566406 -6.671875 5.285156 -6.40625 5.796875 -5.875 C 6.316406 -5.351562 6.578125 -4.628906 6.578125 -3.703125 L 6.578125 -2.828125 L 2.34375 -2.828125 C 2.363281 -2.316406 2.515625 -1.921875 2.796875 -1.640625 C 3.078125 -1.359375 3.472656 -1.21875 3.984375 -1.21875 C 4.378906 -1.21875 4.75 -1.253906 5.09375 -1.328125 C 5.445312 -1.410156 5.816406 -1.546875 6.203125 -1.734375 L 6.203125 -0.34375 C 5.890625 -0.1875 5.554688 -0.0703125 5.203125 0 C 4.847656 0.0820312 4.414062 0.125 3.90625 0.125 Z M 3.90625 0.125 "/></g></g></g></svg>